# File created by Blade
# Date/Time:  Tue Apr 07 20:22:14 2015
# Frame Rate: 120.000 fps
#------------------------------------------------------
:FULLY-SPECIFIED
:DEGREES
1474
root 1.475933 32.808807 -11.725997 20.113852 4.335233 -1.961355
Spine -5.871150 -3.972784 0.387867
Head 29.075173 -9.396652 3.566933
LeftShoulder -16.233885 46.033811 11.140592
LeftArm 48.558492 -0.770815 -88.630067
LeftForeArm -5.286055 -0.000000 31.357702
LeftHand 11.520344 -0.000000 13.170336
LeftHandThumb1 -26.253704 0.000000 33.147579
RightShoulder -4.413430 -7.465033 -17.221524
RightArm 11.037959 2.776682 87.059771
RightForeArm 5.730154 -0.000000 23.525930
RightHand 7.254748 -0.000000 3.401046
RightHandThumb1 -24.326973 -0.000000 -32.862282
LeftUpLeg -26.722745 -4.943195 3.712828
LeftLeg 8.189399 -0.000000 -0.000000
LeftFoot -5.036350 8.246221 -14.369875
LeftToeBase -6.355959 -0.000000 0.000000
RightUpLeg -18.970604 -3.076916 2.582583
RightLeg -2.649437 -0.000000 0.000000
RightFoot -3.857338 -7.236854 5.788607
RightToeBase 2.764650 -0.000000 -0.000000
1475
root 1.496573 32.810503 -11.702002 20.038397 4.323122 -2.005016
Spine -6.001907 -4.016703 0.373682
Head 28.820260 -9.388292 3.594350
LeftShoulder -16.220743 46.028985 11.156254
LeftArm 48.562883 -0.738011 -88.634684
LeftForeArm -5.107081 -0.000000 31.375804
LeftHand 11.491652 -0.000000 13.305453
LeftHandThumb1 -26.253704 0.000000 33.147579
RightShoulder -4.407408 -7.444539 -17.232873
RightArm 11.054647 2.728902 87.141162
RightForeArm 5.635506 -0.000000 23.613760
RightHand 7.097008 0.000000 3.398196
RightHandThumb1 -24.326973 -0.000000 -32.862282
LeftUpLeg -26.614718 -4.932494 3.706443
LeftLeg 8.223755 -0.000000 -0.000000
LeftFoot -5.112766 8.212785 -14.350691
LeftToeBase -6.345562 -0.000000 0.000000
RightUpLeg -18.895439 -3.048664 2.584100
RightLeg -2.565345 -0.000000 0.000000
RightFoot -3.898775 -7.289347 5.748415
RightToeBase 2.720515 -0.000000 -0.000000
1476
root 1.517012 32.812013 -11.676454 19.960883 4.289956 -2.044950
Spine -6.138982 -4.052416 0.349517
Head 28.573607 -9.341481 3.649632
LeftShoulder -16.214814 46.025212 11.172010
LeftArm 48.555476 -0.682636 -88.584026
LeftForeArm -5.012277 -0.000000 31.361431
LeftHand 11.586357 -0.000000 13.334320
LeftHandThumb1 -26.253704 0.000000 33.147579
RightShoulder -4.401373 -7.439926 -17.244446
RightArm 11.087518 2.654743 87.221782
RightForeArm 5.541704 -0.000000 23.690323
RightHand 7.226239 -0.000000 3.283172
RightHandThumb1 -24.326973 -0.000000 -32.862282
LeftUpLeg -26.489227 -4.920259 3.694752
LeftLeg 8.234494 -0.000000 -0.000000
LeftFoot -5.190174 8.216516 -14.352122
LeftToeBase -6.333598 -0.000000 0.000000
RightUpLeg -18.812963 -2.988942 2.566125
RightLeg -2.484725 -0.000000 0.000000
RightFoot -3.954324 -7.318985 5.768316
RightToeBase 2.727299 -0.000000 -0.000000
1477
root 1.537280 32.813352 -11.649815 19.870071 4.262683 -2.072199
Spine -6.265749 -4.068356 0.314244
Head 28.340584 -9.300783 3.671350
LeftShoulder -16.178886 45.981818 11.210323
LeftArm 48.530825 -0.620064 -88.504383
LeftForeArm -4.906191 0.000000 31.336762
LeftHand 11.651225 -0.000000 13.425806
LeftHandThumb1 -26.253704 0.000000 33.147579
RightShoulder -4.397908 -7.452441 -17.251557
RightArm 11.095974 2.610462 87.306482
RightForeArm 5.541139 -0.000000 23.815424
RightHand 7.252076 0.000000 3.307736
RightHandThumb1 -24.326973 -0.000000 -32.862282
LeftUpLeg -26.364986 -4.799511 3.626144
LeftLeg 8.286825 -0.000000 -0.000000
LeftFoot -5.235214 8.082023 -14.275930
LeftToeBase -6.419175 -0.000000 0.000000
RightUpLeg -18.773243 -3.218366 2.638053
RightLeg -2.306734 -0.000000 0.000000
RightFoot -4.016954 -7.063868 5.713639
RightToeBase 2.622394 -0.000000 -0.000000
1478
root 1.558026 32.815145 -11.620962 19.782714 4.247210 -2.085833
Spine -6.402467 -4.112631 0.269977
Head 28.125710 -9.302747 3.691826
LeftShoulder -16.215660 45.977905 11.183481
LeftArm 48.567202 -0.566216 -88.432555
LeftForeArm -4.739728 -0.000000 31.278895
LeftHand 11.698699 -0.000000 13.498910
LeftHandThumb1 -26.253704 0.000000 33.147579
RightShoulder -4.409137 -7.435341 -17.258809
RightArm 11.067037 2.528738 87.384628
RightForeArm 5.418236 -0.000000 23.946630
RightHand 7.161144 -0.000000 3.305843
RightHandThumb1 -24.326973 -0.000000 -32.862282
LeftUpLeg -26.211674 -4.775512 3.578197
LeftLeg 8.271298 -0.000000 -0.000000
LeftFoot -5.288311 8.060092 -14.223297
LeftToeBase -6.373941 -0.000000 0.000000
RightUpLeg -18.701374 -3.234881 2.624305
RightLeg -2.173876 -0.000000 0.000000
RightFoot -4.094417 -7.079106 5.666735
RightToeBase 2.606933 -0.000000 -0.000000
1479
root 1.573720 32.815956 -11.593007 19.693381 4.226287 -2.127270
Spine -6.538353 -4.162300 0.249281
Head 27.889437 -9.286978 3.724065
LeftShoulder -16.227593 45.970017 11.178609
LeftArm 48.559722 -0.544052 -88.364250
LeftForeArm -4.628848 0.000000 31.235919
LeftHand 11.804141 0.000000 13.484477
LeftHandThumb1 -26.253704 0.000000 33.147579
RightShoulder -4.412087 -7.452141 -17.259315
RightArm 11.101510 2.482505 87.473971
RightForeArm 5.407013 -0.000000 24.058268
RightHand 7.155211 -0.000000 3.267092
RightHandThumb1 -24.326973 -0.000000 -32.862282
LeftUpLeg -26.021167 -4.902712 3.622590
LeftLeg 8.169773 -0.000000 -0.000000
LeftFoot -5.375539 8.250726 -14.205616
LeftToeBase -6.450776 -0.000000 0.000000
RightUpLeg -18.604221 -3.133756 2.610517
RightLeg -2.091679 -0.000000 0.000000
RightFoot -4.158190 -7.220361 5.613908
RightToeBase 2.541629 -0.000000 -0.000000
1480
root 1.591561 32.817678 -11.562067 19.585831 4.203062 -2.154802
Spine -6.651839 -4.171715 0.200235
Head 27.642280 -9.306259 3.786472
LeftShoulder -16.240311 46.045947 11.151812
LeftArm 48.644095 -0.521767 -88.293421
LeftForeArm -4.439653 -0.000000 31.218837
LeftHand 11.835431 -0.000000 13.477903
LeftHandThumb1 -26.253704 0.000000 33.147579
RightShoulder -4.433021 -7.487245 -17.225101
RightArm 11.088953 2.457922 87.530213
RightForeArm 5.314640 0.000000 24.231588
RightHand 7.133360 -0.000000 3.308070
RightHandThumb1 -24.326973 -0.000000 -32.862282
LeftUpLeg -25.824312 -4.912184 3.605101
LeftLeg 8.120221 -0.000000 -0.000000
LeftFoot -5.458589 8.275859 -14.187708
LeftToeBase -6.373939 -0.000000 0.000000
RightUpLeg -18.470349 -3.037794 2.576485
RightLeg -2.032558 -0.000000 0.000000
RightFoot -4.210659 -7.341493 5.589287
RightToeBase 2.537118 -0.000000 -0.000000
1481
root 1.611308 32.818944 -11.532005 19.474655 4.166656 -2.179714
Spine -6.769584 -4.199211 0.163329
Head 27.432590 -9.289390 3.803941
LeftShoulder -16.248599 46.049209 11.129641
LeftArm 48.635619 -0.517072 -88.221677
LeftForeArm -4.341325 0.000000 31.188771
LeftHand 11.876228 -0.000000 13.430634
LeftHandThumb1 -26.253704 0.000000 33.147579
RightShoulder -4.444899 -7.498948 -17.219285
RightArm 11.081648 2.422267 87.601891
RightForeArm 5.239582 -0.000000 24.364109
RightHand 7.178421 -0.000000 3.355232
RightHandThumb1 -24.326973 -0.000000 -32.862282
LeftUpLeg -25.635868 -4.879931 3.565373
LeftLeg 8.099720 -0.000000 -0.000000
LeftFoot -5.540571 8.265518 -14.148604
LeftToeBase -6.388761 -0.000000 0.000000
RightUpLeg -18.351816 -2.971784 2.541563
RightLeg -1.937822 -0.000000 0.000000
RightFoot -4.297291 -7.396497 5.607800
RightToeBase 2.585153 -0.000000 -0.000000
1482
root 1.629049 32.820019 -11.500221 19.359273 4.135378 -2.209434
Spine -6.890225 -4.221839 0.140591
Head 27.232113 -9.307992 3.789808
LeftShoulder -16.239695 46.029201 11.124235
LeftArm 48.605247 -0.526937 -88.166655
LeftForeArm -4.279437 -0.000000 31.107874
LeftHand 11.957036 0.000000 13.315973
LeftHandThumb1 -26.253704 0.000000 33.147579
RightShoulder -4.468754 -7.519006 -17.214947
RightArm 11.085761 2.331975 87.659601
RightForeArm 5.182259 -0.000000 24.470638
RightHand 7.095911 -0.000000 3.300295
RightHandThumb1 -24.326973 -0.000000 -32.862282
LeftUpLeg -25.430729 -4.847999 3.533666
LeftLeg 8.056080 -0.000000 -0.000000
LeftFoot -5.617513 8.247072 -14.114996
LeftToeBase -6.367380 -0.000000 0.000000
RightUpLeg -18.242205 -2.964963 2.539874
RightLeg -1.810612 -0.000000 0.000000
RightFoot -4.396997 -7.420511 5.589725
RightToeBase 2.689040 -0.000000 -0.000000
